<?xml version="1.0" encoding="UTF-8" standalone="no"?>
<!DOCTYPE svg PUBLIC "-//W3C//DTD SVG 1.1//EN"
 "http://www.w3.org/Graphics/SVG/1.1/DTD/svg11.dtd">
<!-- Generated by graphviz version 2.47.0 (20210316.0004)
 -->
<!-- Title: dependencies Pages: 1 -->
<svg width="5566pt" height="284pt"
 viewBox="0.00 0.00 5566.00 284.00" xmlns="http://www.w3.org/2000/svg" xmlns:xlink="http://www.w3.org/1999/xlink">
<g id="graph0" class="graph" transform="scale(1 1) rotate(0) translate(4 280)">
<title>dependencies</title>
<polygon fill="white" stroke="transparent" points="-4,4 -4,-280 5562,-280 5562,4 -4,4"/>
<text text-anchor="start" x="2758.01" y="-42.4" font-family="sans-serif" font-weight="bold" font-size="14.00">Legend</text>
<polygon fill="#ffffb3" stroke="transparent" points="2545,-10 2545,-30 2565,-30 2565,-10 2545,-10"/>
<text text-anchor="start" x="2568.63" y="-15.4" font-family="sans-serif" font-size="14.00"> &#160;Declarations</text>
<polygon fill="#8dd3c7" stroke="transparent" points="2658,-10 2658,-30 2678,-30 2678,-10 2658,-10"/>
<text text-anchor="start" x="2681.73" y="-15.4" font-family="sans-serif" font-size="14.00"> &#160;Module</text>
<polygon fill="#80b1d3" stroke="transparent" points="2744,-10 2744,-30 2764,-30 2764,-10 2744,-10"/>
<text text-anchor="start" x="2767.78" y="-15.4" font-family="sans-serif" font-size="14.00"> &#160;Bootstrap</text>
<polygon fill="#fdb462" stroke="transparent" points="2841,-10 2841,-30 2861,-30 2861,-10 2841,-10"/>
<text text-anchor="start" x="2864.67" y="-15.4" font-family="sans-serif" font-size="14.00"> &#160;Providers</text>
<polygon fill="#fb8072" stroke="transparent" points="2937,-10 2937,-30 2957,-30 2957,-10 2937,-10"/>
<text text-anchor="start" x="2960.73" y="-15.4" font-family="sans-serif" font-size="14.00"> &#160;Exports</text>
<g id="clust1" class="cluster">
<title>cluster_AppModule</title>
<polygon fill="none" stroke="black" stroke-dasharray="1,5" points="8,-70 8,-268 5550,-268 5550,-70 8,-70"/>
</g>
<g id="clust2" class="cluster">
<title>cluster_AppModule_declarations</title>
<polygon fill="none" stroke="black" points="168,-78 168,-130 5542,-130 5542,-78 168,-78"/>
</g>
<g id="clust33" class="cluster">
<title>cluster_AppModule_imports</title>
<polygon fill="none" stroke="black" points="16,-78 16,-130 160,-130 160,-78 16,-78"/>
</g>
<g id="clust35" class="cluster">
<title>cluster_AppModule_bootstrap</title>
<polygon fill="none" stroke="black" points="2732,-208 2732,-260 2856,-260 2856,-208 2732,-208"/>
</g>
<!-- AddIngredientComponent -->
<g id="node1" class="node">
<title>AddIngredientComponent</title>
<polygon fill="#ffffb3" stroke="black" points="5534.47,-122 5371.53,-122 5371.53,-86 5534.47,-86 5534.47,-122"/>
<text text-anchor="middle" x="5453" y="-99.8" font-family="Times,serif" font-size="14.00">AddIngredientComponent</text>
</g>
<!-- AppModule -->
<g id="node31" class="node">
<title>AppModule</title>
<polygon fill="#8dd3c7" stroke="black" points="2835.66,-187 2832.66,-191 2811.66,-191 2808.66,-187 2752.34,-187 2752.34,-151 2835.66,-151 2835.66,-187"/>
<text text-anchor="middle" x="2794" y="-164.8" font-family="Times,serif" font-size="14.00">AppModule</text>
</g>
<!-- AddIngredientComponent&#45;&gt;AppModule -->
<g id="edge1" class="edge">
<title>AddIngredientComponent&#45;&gt;AppModule</title>
<path fill="none" stroke="black" d="M5453,-122.38C5453,-146.28 5453,-185 5453,-185 5453,-185 2845.77,-185 2845.77,-185"/>
<polygon fill="black" stroke="black" points="2845.77,-181.5 2835.77,-185 2845.77,-188.5 2845.77,-181.5"/>
</g>
<!-- AddIngredientDialogComponent -->
<g id="node2" class="node">
<title>AddIngredientDialogComponent</title>
<polygon fill="#ffffb3" stroke="black" points="5353.57,-122 5152.43,-122 5152.43,-86 5353.57,-86 5353.57,-122"/>
<text text-anchor="middle" x="5253" y="-99.8" font-family="Times,serif" font-size="14.00">AddIngredientDialogComponent</text>
</g>
<!-- AddIngredientDialogComponent&#45;&gt;AppModule -->
<g id="edge2" class="edge">
<title>AddIngredientDialogComponent&#45;&gt;AppModule</title>
<path fill="none" stroke="black" d="M5253,-122.32C5253,-145.66 5253,-183 5253,-183 5253,-183 2845.91,-183 2845.91,-183"/>
<polygon fill="black" stroke="black" points="2845.91,-179.5 2835.91,-183 2845.91,-186.5 2845.91,-179.5"/>
</g>
<!-- AddMenuDialogComponent -->
<g id="node3" class="node">
<title>AddMenuDialogComponent</title>
<polygon fill="#ffffb3" stroke="black" points="5134.2,-122 4957.8,-122 4957.8,-86 5134.2,-86 5134.2,-122"/>
<text text-anchor="middle" x="5046" y="-99.8" font-family="Times,serif" font-size="14.00">AddMenuDialogComponent</text>
</g>
<!-- AddMenuDialogComponent&#45;&gt;AppModule -->
<g id="edge3" class="edge">
<title>AddMenuDialogComponent&#45;&gt;AppModule</title>
<path fill="none" stroke="black" d="M5046,-122.25C5046,-145.02 5046,-181 5046,-181 5046,-181 2845.99,-181 2845.99,-181"/>
<polygon fill="black" stroke="black" points="2845.99,-177.5 2835.99,-181 2845.99,-184.5 2845.99,-177.5"/>
</g>
<!-- AddStaffComponent -->
<g id="node4" class="node">
<title>AddStaffComponent</title>
<polygon fill="#ffffb3" stroke="black" points="4940.15,-122 4807.85,-122 4807.85,-86 4940.15,-86 4940.15,-122"/>
<text text-anchor="middle" x="4874" y="-99.8" font-family="Times,serif" font-size="14.00">AddStaffComponent</text>
</g>
<!-- AddStaffComponent&#45;&gt;AppModule -->
<g id="edge4" class="edge">
<title>AddStaffComponent&#45;&gt;AppModule</title>
<path fill="none" stroke="black" d="M4874,-122.29C4874,-144.21 4874,-178 4874,-178 4874,-178 2846.02,-178 2846.02,-178"/>
<polygon fill="black" stroke="black" points="2846.02,-174.5 2836.02,-178 2846.02,-181.5 2846.02,-174.5"/>
</g>
<!-- AddStaffDialogComponent -->
<g id="node5" class="node">
<title>AddStaffDialogComponent</title>
<polygon fill="#ffffb3" stroke="black" points="4789.25,-122 4618.75,-122 4618.75,-86 4789.25,-86 4789.25,-122"/>
<text text-anchor="middle" x="4704" y="-99.8" font-family="Times,serif" font-size="14.00">AddStaffDialogComponent</text>
</g>
<!-- AddStaffDialogComponent&#45;&gt;AppModule -->
<g id="edge5" class="edge">
<title>AddStaffDialogComponent&#45;&gt;AppModule</title>
<path fill="none" stroke="black" d="M4704,-122.17C4704,-143.5 4704,-176 4704,-176 4704,-176 2845.67,-176 2845.67,-176"/>
<polygon fill="black" stroke="black" points="2845.67,-172.5 2835.67,-176 2845.67,-179.5 2845.67,-172.5"/>
</g>
<!-- AllergensChipsComponent -->
<g id="node6" class="node">
<title>AllergensChipsComponent</title>
<polygon fill="#ffffb3" stroke="black" points="4600.43,-122 4431.57,-122 4431.57,-86 4600.43,-86 4600.43,-122"/>
<text text-anchor="middle" x="4516" y="-99.8" font-family="Times,serif" font-size="14.00">AllergensChipsComponent</text>
</g>
<!-- AllergensChipsComponent&#45;&gt;AppModule -->
<g id="edge6" class="edge">
<title>AllergensChipsComponent&#45;&gt;AppModule</title>
<path fill="none" stroke="black" d="M4516,-122.03C4516,-142.77 4516,-174 4516,-174 4516,-174 2845.71,-174 2845.71,-174"/>
<polygon fill="black" stroke="black" points="2845.71,-170.5 2835.71,-174 2845.71,-177.5 2845.71,-170.5"/>
</g>
<!-- AppComponent -->
<g id="node7" class="node">
<title>AppComponent</title>
<polygon fill="#ffffb3" stroke="black" points="4413.94,-122 4308.06,-122 4308.06,-86 4413.94,-86 4413.94,-122"/>
<text text-anchor="middle" x="4361" y="-99.8" font-family="Times,serif" font-size="14.00">AppComponent</text>
</g>
<!-- AppComponent&#45;&gt;AppModule -->
<g id="edge7" class="edge">
<title>AppComponent&#45;&gt;AppModule</title>
<path fill="none" stroke="black" d="M4361,-122.22C4361,-142.37 4361,-172 4361,-172 4361,-172 2845.91,-172 2845.91,-172"/>
<polygon fill="black" stroke="black" points="2845.91,-168.5 2835.91,-172 2845.91,-175.5 2845.91,-168.5"/>
</g>
<!-- BasketComponent -->
<g id="node8" class="node">
<title>BasketComponent</title>
<polygon fill="#ffffb3" stroke="black" points="4290.93,-122 4171.07,-122 4171.07,-86 4290.93,-86 4290.93,-122"/>
<text text-anchor="middle" x="4231" y="-99.8" font-family="Times,serif" font-size="14.00">BasketComponent</text>
</g>
<!-- BasketComponent&#45;&gt;AppModule -->
<g id="edge8" class="edge">
<title>BasketComponent&#45;&gt;AppModule</title>
<path fill="none" stroke="black" d="M4231,-122.11C4231,-141.34 4231,-169 4231,-169 4231,-169 2845.84,-169 2845.84,-169"/>
<polygon fill="black" stroke="black" points="2845.84,-165.5 2835.84,-169 2845.84,-172.5 2845.84,-165.5"/>
</g>
<!-- CallWaiterComponent -->
<g id="node9" class="node">
<title>CallWaiterComponent</title>
<polygon fill="#ffffb3" stroke="black" points="4153.25,-122 4010.75,-122 4010.75,-86 4153.25,-86 4153.25,-122"/>
<text text-anchor="middle" x="4082" y="-99.8" font-family="Times,serif" font-size="14.00">CallWaiterComponent</text>
</g>
<!-- CallWaiterComponent&#45;&gt;AppModule -->
<g id="edge9" class="edge">
<title>CallWaiterComponent&#45;&gt;AppModule</title>
<path fill="none" stroke="black" d="M4082,-122.22C4082,-140.83 4082,-167 4082,-167 4082,-167 2845.76,-167 2845.76,-167"/>
<polygon fill="black" stroke="black" points="2845.76,-163.5 2835.76,-167 2845.76,-170.5 2845.76,-163.5"/>
</g>
<!-- CategoryDialogComponent -->
<g id="node10" class="node">
<title>CategoryDialogComponent</title>
<polygon fill="#ffffb3" stroke="black" points="3992.25,-122 3821.75,-122 3821.75,-86 3992.25,-86 3992.25,-122"/>
<text text-anchor="middle" x="3907" y="-99.8" font-family="Times,serif" font-size="14.00">CategoryDialogComponent</text>
</g>
<!-- CategoryDialogComponent&#45;&gt;AppModule -->
<g id="edge10" class="edge">
<title>CategoryDialogComponent&#45;&gt;AppModule</title>
<path fill="none" stroke="black" d="M3907,-122.3C3907,-140.27 3907,-165 3907,-165 3907,-165 2845.94,-165 2845.94,-165"/>
<polygon fill="black" stroke="black" points="2845.94,-161.5 2835.94,-165 2845.94,-168.5 2845.94,-161.5"/>
</g>
<!-- CustomerInterfaceComponent -->
<g id="node11" class="node">
<title>CustomerInterfaceComponent</title>
<polygon fill="#ffffb3" stroke="black" points="3803.5,-122 3618.5,-122 3618.5,-86 3803.5,-86 3803.5,-122"/>
<text text-anchor="middle" x="3711" y="-99.8" font-family="Times,serif" font-size="14.00">CustomerInterfaceComponent</text>
</g>
<!-- CustomerInterfaceComponent&#45;&gt;AppModule -->
<g id="edge11" class="edge">
<title>CustomerInterfaceComponent&#45;&gt;AppModule</title>
<path fill="none" stroke="black" d="M3711,-122.02C3711,-139.37 3711,-163 3711,-163 3711,-163 2845.78,-163 2845.78,-163"/>
<polygon fill="black" stroke="black" points="2845.78,-159.5 2835.78,-163 2845.78,-166.5 2845.78,-159.5"/>
</g>
<!-- ExpansionPannelComponent -->
<g id="node12" class="node">
<title>ExpansionPannelComponent</title>
<polygon fill="#ffffb3" stroke="black" points="3600.04,-122 3421.96,-122 3421.96,-86 3600.04,-86 3600.04,-122"/>
<text text-anchor="middle" x="3511" y="-99.8" font-family="Times,serif" font-size="14.00">ExpansionPannelComponent</text>
</g>
<!-- ExpansionPannelComponent&#45;&gt;AppModule -->
<g id="edge12" class="edge">
<title>ExpansionPannelComponent&#45;&gt;AppModule</title>
<path fill="none" stroke="black" d="M3511,-122.03C3511,-138.4 3511,-160 3511,-160 3511,-160 2845.91,-160 2845.91,-160"/>
<polygon fill="black" stroke="black" points="2845.91,-156.5 2835.91,-160 2845.91,-163.5 2845.91,-156.5"/>
</g>
<!-- HomePageComponent -->
<g id="node13" class="node">
<title>HomePageComponent</title>
<polygon fill="#ffffb3" stroke="black" points="3403.26,-122 3260.74,-122 3260.74,-86 3403.26,-86 3403.26,-122"/>
<text text-anchor="middle" x="3332" y="-99.8" font-family="Times,serif" font-size="14.00">HomePageComponent</text>
</g>
<!-- HomePageComponent&#45;&gt;AppModule -->
<g id="edge13" class="edge">
<title>HomePageComponent&#45;&gt;AppModule</title>
<path fill="none" stroke="black" d="M3332,-122.28C3332,-137.95 3332,-158 3332,-158 3332,-158 2845.77,-158 2845.77,-158"/>
<polygon fill="black" stroke="black" points="2845.77,-154.5 2835.77,-158 2845.77,-161.5 2845.77,-154.5"/>
</g>
<!-- IngredientsDialogComponent -->
<g id="node14" class="node">
<title>IngredientsDialogComponent</title>
<polygon fill="#ffffb3" stroke="black" points="3242.41,-122 3059.59,-122 3059.59,-86 3242.41,-86 3242.41,-122"/>
<text text-anchor="middle" x="3151" y="-99.8" font-family="Times,serif" font-size="14.00">IngredientsDialogComponent</text>
</g>
<!-- IngredientsDialogComponent&#45;&gt;AppModule -->
<g id="edge14" class="edge">
<title>IngredientsDialogComponent&#45;&gt;AppModule</title>
<path fill="none" stroke="black" d="M3151,-122.19C3151,-137.18 3151,-156 3151,-156 3151,-156 2846,-156 2846,-156"/>
<polygon fill="black" stroke="black" points="2846,-152.5 2836,-156 2846,-159.5 2846,-152.5"/>
</g>
<!-- KitchenMenuComponent -->
<g id="node15" class="node">
<title>KitchenMenuComponent</title>
<polygon fill="#ffffb3" stroke="black" points="3042.31,-122 2883.69,-122 2883.69,-86 3042.31,-86 3042.31,-122"/>
<text text-anchor="middle" x="2963" y="-99.8" font-family="Times,serif" font-size="14.00">KitchenMenuComponent</text>
</g>
<!-- KitchenMenuComponent&#45;&gt;AppModule -->
<g id="edge15" class="edge">
<title>KitchenMenuComponent&#45;&gt;AppModule</title>
<path fill="none" stroke="black" d="M2963,-122.05C2963,-136.37 2963,-154 2963,-154 2963,-154 2845.78,-154 2845.78,-154"/>
<polygon fill="black" stroke="black" points="2845.78,-150.5 2835.78,-154 2845.78,-157.5 2845.78,-150.5"/>
</g>
<!-- LoginInputComponent -->
<g id="node16" class="node">
<title>LoginInputComponent</title>
<polygon fill="#ffffb3" stroke="black" points="2866.33,-122 2721.67,-122 2721.67,-86 2866.33,-86 2866.33,-122"/>
<text text-anchor="middle" x="2794" y="-99.8" font-family="Times,serif" font-size="14.00">LoginInputComponent</text>
</g>
<!-- LoginInputComponent&#45;&gt;AppModule -->
<g id="edge16" class="edge">
<title>LoginInputComponent&#45;&gt;AppModule</title>
<path fill="none" stroke="black" d="M2794,-122.11C2794,-122.11 2794,-140.99 2794,-140.99"/>
<polygon fill="black" stroke="black" points="2790.5,-140.99 2794,-150.99 2797.5,-140.99 2790.5,-140.99"/>
</g>
<!-- ManagerMenuComponent -->
<g id="node17" class="node">
<title>ManagerMenuComponent</title>
<polygon fill="#ffffb3" stroke="black" points="2703.74,-122 2540.26,-122 2540.26,-86 2703.74,-86 2703.74,-122"/>
<text text-anchor="middle" x="2622" y="-99.8" font-family="Times,serif" font-size="14.00">ManagerMenuComponent</text>
</g>
<!-- ManagerMenuComponent&#45;&gt;AppModule -->
<g id="edge17" class="edge">
<title>ManagerMenuComponent&#45;&gt;AppModule</title>
<path fill="none" stroke="black" d="M2622,-122.05C2622,-136.37 2622,-154 2622,-154 2622,-154 2741.92,-154 2741.92,-154"/>
<polygon fill="black" stroke="black" points="2741.92,-157.5 2751.92,-154 2741.92,-150.5 2741.92,-157.5"/>
</g>
<!-- MenusListDisplayComponent -->
<g id="node18" class="node">
<title>MenusListDisplayComponent</title>
<polygon fill="#ffffb3" stroke="black" points="2522.26,-122 2337.74,-122 2337.74,-86 2522.26,-86 2522.26,-122"/>
<text text-anchor="middle" x="2430" y="-99.8" font-family="Times,serif" font-size="14.00">MenusListDisplayComponent</text>
</g>
<!-- MenusListDisplayComponent&#45;&gt;AppModule -->
<g id="edge18" class="edge">
<title>MenusListDisplayComponent&#45;&gt;AppModule</title>
<path fill="none" stroke="black" d="M2430,-122.19C2430,-137.18 2430,-156 2430,-156 2430,-156 2742.24,-156 2742.24,-156"/>
<polygon fill="black" stroke="black" points="2742.24,-159.5 2752.24,-156 2742.24,-152.5 2742.24,-159.5"/>
</g>
<!-- NotificationsComponent -->
<g id="node19" class="node">
<title>NotificationsComponent</title>
<polygon fill="#ffffb3" stroke="black" points="2319.43,-122 2164.57,-122 2164.57,-86 2319.43,-86 2319.43,-122"/>
<text text-anchor="middle" x="2242" y="-99.8" font-family="Times,serif" font-size="14.00">NotificationsComponent</text>
</g>
<!-- NotificationsComponent&#45;&gt;AppModule -->
<g id="edge19" class="edge">
<title>NotificationsComponent&#45;&gt;AppModule</title>
<path fill="none" stroke="black" d="M2242,-122.28C2242,-137.95 2242,-158 2242,-158 2242,-158 2742.06,-158 2742.06,-158"/>
<polygon fill="black" stroke="black" points="2742.06,-161.5 2752.06,-158 2742.06,-154.5 2742.06,-161.5"/>
</g>
<!-- NotificationsDialogComponent -->
<g id="node20" class="node">
<title>NotificationsDialogComponent</title>
<polygon fill="#ffffb3" stroke="black" points="2147.03,-122 1954.97,-122 1954.97,-86 2147.03,-86 2147.03,-122"/>
<text text-anchor="middle" x="2051" y="-99.8" font-family="Times,serif" font-size="14.00">NotificationsDialogComponent</text>
</g>
<!-- NotificationsDialogComponent&#45;&gt;AppModule -->
<g id="edge20" class="edge">
<title>NotificationsDialogComponent&#45;&gt;AppModule</title>
<path fill="none" stroke="black" d="M2051,-122.03C2051,-138.4 2051,-160 2051,-160 2051,-160 2742.19,-160 2742.19,-160"/>
<polygon fill="black" stroke="black" points="2742.19,-163.5 2752.19,-160 2742.19,-156.5 2742.19,-163.5"/>
</g>
<!-- OrderComponent -->
<g id="node21" class="node">
<title>OrderComponent</title>
<polygon fill="#ffffb3" stroke="black" points="1936.97,-122 1823.03,-122 1823.03,-86 1936.97,-86 1936.97,-122"/>
<text text-anchor="middle" x="1880" y="-99.8" font-family="Times,serif" font-size="14.00">OrderComponent</text>
</g>
<!-- OrderComponent&#45;&gt;AppModule -->
<g id="edge21" class="edge">
<title>OrderComponent&#45;&gt;AppModule</title>
<path fill="none" stroke="black" d="M1880,-122.02C1880,-139.37 1880,-163 1880,-163 1880,-163 2742.05,-163 2742.05,-163"/>
<polygon fill="black" stroke="black" points="2742.05,-166.5 2752.05,-163 2742.05,-159.5 2742.05,-166.5"/>
</g>
<!-- OrderTrackerComponent -->
<g id="node22" class="node">
<title>OrderTrackerComponent</title>
<polygon fill="#ffffb3" stroke="black" points="1804.99,-122 1647.01,-122 1647.01,-86 1804.99,-86 1804.99,-122"/>
<text text-anchor="middle" x="1726" y="-99.8" font-family="Times,serif" font-size="14.00">OrderTrackerComponent</text>
</g>
<!-- OrderTrackerComponent&#45;&gt;AppModule -->
<g id="edge22" class="edge">
<title>OrderTrackerComponent&#45;&gt;AppModule</title>
<path fill="none" stroke="black" d="M1726,-122.3C1726,-140.27 1726,-165 1726,-165 1726,-165 2742.13,-165 2742.13,-165"/>
<polygon fill="black" stroke="black" points="2742.13,-168.5 2752.13,-165 2742.13,-161.5 2742.13,-168.5"/>
</g>
<!-- OrdersListDisplayComponent -->
<g id="node23" class="node">
<title>OrdersListDisplayComponent</title>
<polygon fill="#ffffb3" stroke="black" points="1629.24,-122 1444.76,-122 1444.76,-86 1629.24,-86 1629.24,-122"/>
<text text-anchor="middle" x="1537" y="-99.8" font-family="Times,serif" font-size="14.00">OrdersListDisplayComponent</text>
</g>
<!-- OrdersListDisplayComponent&#45;&gt;AppModule -->
<g id="edge23" class="edge">
<title>OrdersListDisplayComponent&#45;&gt;AppModule</title>
<path fill="none" stroke="black" d="M1537,-122.22C1537,-140.83 1537,-167 1537,-167 1537,-167 2742.18,-167 2742.18,-167"/>
<polygon fill="black" stroke="black" points="2742.18,-170.5 2752.18,-167 2742.18,-163.5 2742.18,-170.5"/>
</g>
<!-- PaymentComponent -->
<g id="node24" class="node">
<title>PaymentComponent</title>
<polygon fill="#ffffb3" stroke="black" points="1426.33,-122 1295.67,-122 1295.67,-86 1426.33,-86 1426.33,-122"/>
<text text-anchor="middle" x="1361" y="-99.8" font-family="Times,serif" font-size="14.00">PaymentComponent</text>
</g>
<!-- PaymentComponent&#45;&gt;AppModule -->
<g id="edge24" class="edge">
<title>PaymentComponent&#45;&gt;AppModule</title>
<path fill="none" stroke="black" d="M1361,-122.11C1361,-141.34 1361,-169 1361,-169 1361,-169 2742.27,-169 2742.27,-169"/>
<polygon fill="black" stroke="black" points="2742.27,-172.5 2752.27,-169 2742.27,-165.5 2742.27,-172.5"/>
</g>
<!-- PickTableDialogComponent -->
<g id="node25" class="node">
<title>PickTableDialogComponent</title>
<polygon fill="#ffffb3" stroke="black" points="1278.2,-122 1101.8,-122 1101.8,-86 1278.2,-86 1278.2,-122"/>
<text text-anchor="middle" x="1190" y="-99.8" font-family="Times,serif" font-size="14.00">PickTableDialogComponent</text>
</g>
<!-- PickTableDialogComponent&#45;&gt;AppModule -->
<g id="edge25" class="edge">
<title>PickTableDialogComponent&#45;&gt;AppModule</title>
<path fill="none" stroke="black" d="M1190,-122.22C1190,-142.37 1190,-172 1190,-172 1190,-172 2742.33,-172 2742.33,-172"/>
<polygon fill="black" stroke="black" points="2742.33,-175.5 2752.33,-172 2742.33,-168.5 2742.33,-175.5"/>
</g>
<!-- ReadyToOrderComponent -->
<g id="node26" class="node">
<title>ReadyToOrderComponent</title>
<polygon fill="#ffffb3" stroke="black" points="1083.79,-122 918.21,-122 918.21,-86 1083.79,-86 1083.79,-122"/>
<text text-anchor="middle" x="1001" y="-99.8" font-family="Times,serif" font-size="14.00">ReadyToOrderComponent</text>
</g>
<!-- ReadyToOrderComponent&#45;&gt;AppModule -->
<g id="edge26" class="edge">
<title>ReadyToOrderComponent&#45;&gt;AppModule</title>
<path fill="none" stroke="black" d="M1001,-122.03C1001,-142.77 1001,-174 1001,-174 1001,-174 2742.32,-174 2742.32,-174"/>
<polygon fill="black" stroke="black" points="2742.32,-177.5 2752.32,-174 2742.32,-170.5 2742.32,-177.5"/>
</g>
<!-- SalesDialogComponent -->
<g id="node27" class="node">
<title>SalesDialogComponent</title>
<polygon fill="#ffffb3" stroke="black" points="900.48,-122 751.52,-122 751.52,-86 900.48,-86 900.48,-122"/>
<text text-anchor="middle" x="826" y="-99.8" font-family="Times,serif" font-size="14.00">SalesDialogComponent</text>
</g>
<!-- SalesDialogComponent&#45;&gt;AppModule -->
<g id="edge27" class="edge">
<title>SalesDialogComponent&#45;&gt;AppModule</title>
<path fill="none" stroke="black" d="M826,-122.17C826,-143.5 826,-176 826,-176 826,-176 2741.99,-176 2741.99,-176"/>
<polygon fill="black" stroke="black" points="2741.99,-179.5 2751.99,-176 2741.99,-172.5 2741.99,-179.5"/>
</g>
<!-- SelectTableDialogComponent -->
<g id="node28" class="node">
<title>SelectTableDialogComponent</title>
<polygon fill="#ffffb3" stroke="black" points="733.52,-122 548.48,-122 548.48,-86 733.52,-86 733.52,-122"/>
<text text-anchor="middle" x="641" y="-99.8" font-family="Times,serif" font-size="14.00">SelectTableDialogComponent</text>
</g>
<!-- SelectTableDialogComponent&#45;&gt;AppModule -->
<g id="edge28" class="edge">
<title>SelectTableDialogComponent&#45;&gt;AppModule</title>
<path fill="none" stroke="black" d="M641,-122.29C641,-144.21 641,-178 641,-178 641,-178 2741.96,-178 2741.96,-178"/>
<polygon fill="black" stroke="black" points="2741.96,-181.5 2751.96,-178 2741.96,-174.5 2741.96,-181.5"/>
</g>
<!-- TablesListDisplayComponent -->
<g id="node29" class="node">
<title>TablesListDisplayComponent</title>
<polygon fill="#ffffb3" stroke="black" points="529.97,-122 346.03,-122 346.03,-86 529.97,-86 529.97,-122"/>
<text text-anchor="middle" x="438" y="-99.8" font-family="Times,serif" font-size="14.00">TablesListDisplayComponent</text>
</g>
<!-- TablesListDisplayComponent&#45;&gt;AppModule -->
<g id="edge29" class="edge">
<title>TablesListDisplayComponent&#45;&gt;AppModule</title>
<path fill="none" stroke="black" d="M438,-122.25C438,-145.02 438,-181 438,-181 438,-181 2742.11,-181 2742.11,-181"/>
<polygon fill="black" stroke="black" points="2742.11,-184.5 2752.11,-181 2742.11,-177.5 2742.11,-184.5"/>
</g>
<!-- WaiterMenuComponent -->
<g id="node30" class="node">
<title>WaiterMenuComponent</title>
<polygon fill="#ffffb3" stroke="black" points="328.08,-122 175.92,-122 175.92,-86 328.08,-86 328.08,-122"/>
<text text-anchor="middle" x="252" y="-99.8" font-family="Times,serif" font-size="14.00">WaiterMenuComponent</text>
</g>
<!-- WaiterMenuComponent&#45;&gt;AppModule -->
<g id="edge30" class="edge">
<title>WaiterMenuComponent&#45;&gt;AppModule</title>
<path fill="none" stroke="black" d="M252,-122.32C252,-145.66 252,-183 252,-183 252,-183 2742.26,-183 2742.26,-183"/>
<polygon fill="black" stroke="black" points="2742.26,-186.5 2752.26,-183 2742.26,-179.5 2742.26,-186.5"/>
</g>
<!-- AppComponent  -->
<g id="node33" class="node">
<title>AppComponent </title>
<polygon fill="#80b1d3" stroke="black" points="2848.44,-252 2739.56,-252 2739.56,-216 2848.44,-216 2848.44,-252"/>
<text text-anchor="middle" x="2794" y="-229.8" font-family="Times,serif" font-size="14.00">AppComponent </text>
</g>
<!-- AppModule&#45;&gt;AppComponent  -->
<g id="edge32" class="edge">
<title>AppModule&#45;&gt;AppComponent </title>
<path fill="none" stroke="black" stroke-dasharray="1,5" d="M2794,-187.11C2794,-187.11 2794,-205.99 2794,-205.99"/>
<polygon fill="black" stroke="black" points="2790.5,-205.99 2794,-215.99 2797.5,-205.99 2790.5,-205.99"/>
</g>
<!-- AppRoutingModule -->
<g id="node32" class="node">
<title>AppRoutingModule</title>
<polygon fill="#8dd3c7" stroke="black" points="152.27,-122 149.27,-126 128.27,-126 125.27,-122 23.73,-122 23.73,-86 152.27,-86 152.27,-122"/>
<text text-anchor="middle" x="88" y="-99.8" font-family="Times,serif" font-size="14.00">AppRoutingModule</text>
</g>
<!-- AppRoutingModule&#45;&gt;AppModule -->
<g id="edge31" class="edge">
<title>AppRoutingModule&#45;&gt;AppModule</title>
<path fill="none" stroke="black" d="M88,-122.38C88,-146.28 88,-185 88,-185 88,-185 2742.31,-185 2742.31,-185"/>
<polygon fill="black" stroke="black" points="2742.31,-188.5 2752.31,-185 2742.31,-181.5 2742.31,-188.5"/>
</g>
</g>
</svg>
