<?xml version="1.0" encoding="UTF-8" standalone="no"?>
<!DOCTYPE svg PUBLIC "-//W3C//DTD SVG 1.1//EN"
 "http://www.w3.org/Graphics/SVG/1.1/DTD/svg11.dtd">
<!-- Generated by graphviz version 2.47.0 (20210316.0004)
 -->
<!-- Title: dependencies Pages: 1 -->
<svg width="5566pt" height="284pt"
 viewBox="0.00 0.00 5566.00 284.00" xmlns="http://www.w3.org/2000/svg" xmlns:xlink="http://www.w3.org/1999/xlink">
<g id="graph0" class="graph" transform="scale(1 1) rotate(0) translate(4 280)">
<title>dependencies</title>
<polygon fill="white" stroke="transparent" points="-4,4 -4,-280 5562,-280 5562,4 -4,4"/>
<text text-anchor="start" x="2758.01" y="-42.4" font-family="sans-serif" font-weight="bold" font-size="14.00">Legend</text>
<polygon fill="#ffffb3" stroke="transparent" points="2545,-10 2545,-30 2565,-30 2565,-10 2545,-10"/>
<text text-anchor="start" x="2568.63" y="-15.4" font-family="sans-serif" font-size="14.00"> &#160;Declarations</text>
<polygon fill="#8dd3c7" stroke="transparent" points="2658,-10 2658,-30 2678,-30 2678,-10 2658,-10"/>
<text text-anchor="start" x="2681.73" y="-15.4" font-family="sans-serif" font-size="14.00"> &#160;Module</text>
<polygon fill="#80b1d3" stroke="transparent" points="2744,-10 2744,-30 2764,-30 2764,-10 2744,-10"/>
<text text-anchor="start" x="2767.78" y="-15.4" font-family="sans-serif" font-size="14.00"> &#160;Bootstrap</text>
<polygon fill="#fdb462" stroke="transparent" points="2841,-10 2841,-30 2861,-30 2861,-10 2841,-10"/>
<text text-anchor="start" x="2864.67" y="-15.4" font-family="sans-serif" font-size="14.00"> &#160;Providers</text>
<polygon fill="#fb8072" stroke="transparent" points="2937,-10 2937,-30 2957,-30 2957,-10 2937,-10"/>
<text text-anchor="start" x="2960.73" y="-15.4" font-family="sans-serif" font-size="14.00"> &#160;Exports</text>
<g id="clust1" class="cluster">
<title>cluster_AppModule</title>
<polygon fill="none" stroke="black" stroke-dasharray="1,5" points="8,-70 8,-268 5550,-268 5550,-70 8,-70"/>
</g>
<g id="clust33" class="cluster">
<title>cluster_AppModule_imports</title>
<polygon fill="none" stroke="black" points="5398,-78 5398,-130 5542,-130 5542,-78 5398,-78"/>
</g>
<g id="clust35" class="cluster">
<title>cluster_AppModule_bootstrap</title>
<polygon fill="none" stroke="black" points="2749,-208 2749,-260 2873,-260 2873,-208 2749,-208"/>
</g>
<g id="clust2" class="cluster">
<title>cluster_AppModule_declarations</title>
<polygon fill="none" stroke="black" points="16,-78 16,-130 5390,-130 5390,-78 16,-78"/>
</g>
<!-- AddIngredientComponent -->
<g id="node1" class="node">
<title>AddIngredientComponent</title>
<polygon fill="#ffffb3" stroke="black" points="5382.47,-122 5219.53,-122 5219.53,-86 5382.47,-86 5382.47,-122"/>
<text text-anchor="middle" x="5301" y="-99.8" font-family="Times,serif" font-size="14.00">AddIngredientComponent</text>
</g>
<!-- AppModule -->
<g id="node31" class="node">
<title>AppModule</title>
<polygon fill="#8dd3c7" stroke="black" points="2852.66,-187 2849.66,-191 2828.66,-191 2825.66,-187 2769.34,-187 2769.34,-151 2852.66,-151 2852.66,-187"/>
<text text-anchor="middle" x="2811" y="-164.8" font-family="Times,serif" font-size="14.00">AppModule</text>
</g>
<!-- AddIngredientComponent&#45;&gt;AppModule -->
<g id="edge1" class="edge">
<title>AddIngredientComponent&#45;&gt;AppModule</title>
<path fill="none" stroke="black" d="M5301,-122.32C5301,-145.66 5301,-183 5301,-183 5301,-183 2862.91,-183 2862.91,-183"/>
<polygon fill="black" stroke="black" points="2862.91,-179.5 2852.91,-183 2862.91,-186.5 2862.91,-179.5"/>
</g>
<!-- AddIngredientDialogComponent -->
<g id="node2" class="node">
<title>AddIngredientDialogComponent</title>
<polygon fill="#ffffb3" stroke="black" points="5201.57,-122 5000.43,-122 5000.43,-86 5201.57,-86 5201.57,-122"/>
<text text-anchor="middle" x="5101" y="-99.8" font-family="Times,serif" font-size="14.00">AddIngredientDialogComponent</text>
</g>
<!-- AddIngredientDialogComponent&#45;&gt;AppModule -->
<g id="edge2" class="edge">
<title>AddIngredientDialogComponent&#45;&gt;AppModule</title>
<path fill="none" stroke="black" d="M5101,-122.25C5101,-145.02 5101,-181 5101,-181 5101,-181 2862.7,-181 2862.7,-181"/>
<polygon fill="black" stroke="black" points="2862.7,-177.5 2852.7,-181 2862.7,-184.5 2862.7,-177.5"/>
</g>
<!-- AddMenuDialogComponent -->
<g id="node3" class="node">
<title>AddMenuDialogComponent</title>
<polygon fill="#ffffb3" stroke="black" points="4982.2,-122 4805.8,-122 4805.8,-86 4982.2,-86 4982.2,-122"/>
<text text-anchor="middle" x="4894" y="-99.8" font-family="Times,serif" font-size="14.00">AddMenuDialogComponent</text>
</g>
<!-- AddMenuDialogComponent&#45;&gt;AppModule -->
<g id="edge3" class="edge">
<title>AddMenuDialogComponent&#45;&gt;AppModule</title>
<path fill="none" stroke="black" d="M4894,-122.29C4894,-144.21 4894,-178 4894,-178 4894,-178 2863.08,-178 2863.08,-178"/>
<polygon fill="black" stroke="black" points="2863.08,-174.5 2853.08,-178 2863.08,-181.5 2863.08,-174.5"/>
</g>
<!-- AddStaffComponent -->
<g id="node4" class="node">
<title>AddStaffComponent</title>
<polygon fill="#ffffb3" stroke="black" points="4788.15,-122 4655.85,-122 4655.85,-86 4788.15,-86 4788.15,-122"/>
<text text-anchor="middle" x="4722" y="-99.8" font-family="Times,serif" font-size="14.00">AddStaffComponent</text>
</g>
<!-- AddStaffComponent&#45;&gt;AppModule -->
<g id="edge4" class="edge">
<title>AddStaffComponent&#45;&gt;AppModule</title>
<path fill="none" stroke="black" d="M4722,-122.17C4722,-143.5 4722,-176 4722,-176 4722,-176 2862.69,-176 2862.69,-176"/>
<polygon fill="black" stroke="black" points="2862.69,-172.5 2852.69,-176 2862.69,-179.5 2862.69,-172.5"/>
</g>
<!-- AddStaffDialogComponent -->
<g id="node5" class="node">
<title>AddStaffDialogComponent</title>
<polygon fill="#ffffb3" stroke="black" points="4637.25,-122 4466.75,-122 4466.75,-86 4637.25,-86 4637.25,-122"/>
<text text-anchor="middle" x="4552" y="-99.8" font-family="Times,serif" font-size="14.00">AddStaffDialogComponent</text>
</g>
<!-- AddStaffDialogComponent&#45;&gt;AppModule -->
<g id="edge5" class="edge">
<title>AddStaffDialogComponent&#45;&gt;AppModule</title>
<path fill="none" stroke="black" d="M4552,-122.03C4552,-142.77 4552,-174 4552,-174 4552,-174 2862.75,-174 2862.75,-174"/>
<polygon fill="black" stroke="black" points="2862.75,-170.5 2852.75,-174 2862.75,-177.5 2862.75,-170.5"/>
</g>
<!-- AllergensChipsComponent -->
<g id="node6" class="node">
<title>AllergensChipsComponent</title>
<polygon fill="#ffffb3" stroke="black" points="4448.43,-122 4279.57,-122 4279.57,-86 4448.43,-86 4448.43,-122"/>
<text text-anchor="middle" x="4364" y="-99.8" font-family="Times,serif" font-size="14.00">AllergensChipsComponent</text>
</g>
<!-- AllergensChipsComponent&#45;&gt;AppModule -->
<g id="edge6" class="edge">
<title>AllergensChipsComponent&#45;&gt;AppModule</title>
<path fill="none" stroke="black" d="M4364,-122.22C4364,-142.37 4364,-172 4364,-172 4364,-172 2862.94,-172 2862.94,-172"/>
<polygon fill="black" stroke="black" points="2862.94,-168.5 2852.94,-172 2862.94,-175.5 2862.94,-168.5"/>
</g>
<!-- AppComponent -->
<g id="node7" class="node">
<title>AppComponent</title>
<polygon fill="#ffffb3" stroke="black" points="4261.94,-122 4156.06,-122 4156.06,-86 4261.94,-86 4261.94,-122"/>
<text text-anchor="middle" x="4209" y="-99.8" font-family="Times,serif" font-size="14.00">AppComponent</text>
</g>
<!-- AppComponent&#45;&gt;AppModule -->
<g id="edge7" class="edge">
<title>AppComponent&#45;&gt;AppModule</title>
<path fill="none" stroke="black" d="M4209,-122.11C4209,-141.34 4209,-169 4209,-169 4209,-169 2862.84,-169 2862.84,-169"/>
<polygon fill="black" stroke="black" points="2862.84,-165.5 2852.84,-169 2862.84,-172.5 2862.84,-165.5"/>
</g>
<!-- BasketComponent -->
<g id="node8" class="node">
<title>BasketComponent</title>
<polygon fill="#ffffb3" stroke="black" points="4138.93,-122 4019.07,-122 4019.07,-86 4138.93,-86 4138.93,-122"/>
<text text-anchor="middle" x="4079" y="-99.8" font-family="Times,serif" font-size="14.00">BasketComponent</text>
</g>
<!-- BasketComponent&#45;&gt;AppModule -->
<g id="edge8" class="edge">
<title>BasketComponent&#45;&gt;AppModule</title>
<path fill="none" stroke="black" d="M4079,-122.22C4079,-140.83 4079,-167 4079,-167 4079,-167 2862.83,-167 2862.83,-167"/>
<polygon fill="black" stroke="black" points="2862.83,-163.5 2852.83,-167 2862.83,-170.5 2862.83,-163.5"/>
</g>
<!-- CallWaiterComponent -->
<g id="node9" class="node">
<title>CallWaiterComponent</title>
<polygon fill="#ffffb3" stroke="black" points="4001.25,-122 3858.75,-122 3858.75,-86 4001.25,-86 4001.25,-122"/>
<text text-anchor="middle" x="3930" y="-99.8" font-family="Times,serif" font-size="14.00">CallWaiterComponent</text>
</g>
<!-- CallWaiterComponent&#45;&gt;AppModule -->
<g id="edge9" class="edge">
<title>CallWaiterComponent&#45;&gt;AppModule</title>
<path fill="none" stroke="black" d="M3930,-122.3C3930,-140.27 3930,-165 3930,-165 3930,-165 2862.82,-165 2862.82,-165"/>
<polygon fill="black" stroke="black" points="2862.82,-161.5 2852.82,-165 2862.82,-168.5 2862.82,-161.5"/>
</g>
<!-- CategoryDialogComponent -->
<g id="node10" class="node">
<title>CategoryDialogComponent</title>
<polygon fill="#ffffb3" stroke="black" points="3840.25,-122 3669.75,-122 3669.75,-86 3840.25,-86 3840.25,-122"/>
<text text-anchor="middle" x="3755" y="-99.8" font-family="Times,serif" font-size="14.00">CategoryDialogComponent</text>
</g>
<!-- CategoryDialogComponent&#45;&gt;AppModule -->
<g id="edge10" class="edge">
<title>CategoryDialogComponent&#45;&gt;AppModule</title>
<path fill="none" stroke="black" d="M3755,-122.02C3755,-139.37 3755,-163 3755,-163 3755,-163 2862.78,-163 2862.78,-163"/>
<polygon fill="black" stroke="black" points="2862.78,-159.5 2852.78,-163 2862.78,-166.5 2862.78,-159.5"/>
</g>
<!-- CustomerInterfaceComponent -->
<g id="node11" class="node">
<title>CustomerInterfaceComponent</title>
<polygon fill="#ffffb3" stroke="black" points="3651.5,-122 3466.5,-122 3466.5,-86 3651.5,-86 3651.5,-122"/>
<text text-anchor="middle" x="3559" y="-99.8" font-family="Times,serif" font-size="14.00">CustomerInterfaceComponent</text>
</g>
<!-- CustomerInterfaceComponent&#45;&gt;AppModule -->
<g id="edge11" class="edge">
<title>CustomerInterfaceComponent&#45;&gt;AppModule</title>
<path fill="none" stroke="black" d="M3559,-122.03C3559,-138.4 3559,-160 3559,-160 3559,-160 2862.82,-160 2862.82,-160"/>
<polygon fill="black" stroke="black" points="2862.82,-156.5 2852.82,-160 2862.82,-163.5 2862.82,-156.5"/>
</g>
<!-- ExpansionPannelComponent -->
<g id="node12" class="node">
<title>ExpansionPannelComponent</title>
<polygon fill="#ffffb3" stroke="black" points="3448.04,-122 3269.96,-122 3269.96,-86 3448.04,-86 3448.04,-122"/>
<text text-anchor="middle" x="3359" y="-99.8" font-family="Times,serif" font-size="14.00">ExpansionPannelComponent</text>
</g>
<!-- ExpansionPannelComponent&#45;&gt;AppModule -->
<g id="edge12" class="edge">
<title>ExpansionPannelComponent&#45;&gt;AppModule</title>
<path fill="none" stroke="black" d="M3359,-122.28C3359,-137.95 3359,-158 3359,-158 3359,-158 2863.09,-158 2863.09,-158"/>
<polygon fill="black" stroke="black" points="2863.09,-154.5 2853.09,-158 2863.09,-161.5 2863.09,-154.5"/>
</g>
<!-- HomePageComponent -->
<g id="node13" class="node">
<title>HomePageComponent</title>
<polygon fill="#ffffb3" stroke="black" points="3251.26,-122 3108.74,-122 3108.74,-86 3251.26,-86 3251.26,-122"/>
<text text-anchor="middle" x="3180" y="-99.8" font-family="Times,serif" font-size="14.00">HomePageComponent</text>
</g>
<!-- HomePageComponent&#45;&gt;AppModule -->
<g id="edge13" class="edge">
<title>HomePageComponent&#45;&gt;AppModule</title>
<path fill="none" stroke="black" d="M3180,-122.19C3180,-137.18 3180,-156 3180,-156 3180,-156 2862.97,-156 2862.97,-156"/>
<polygon fill="black" stroke="black" points="2862.97,-152.5 2852.97,-156 2862.97,-159.5 2862.97,-152.5"/>
</g>
<!-- IngredientsDialogComponent -->
<g id="node14" class="node">
<title>IngredientsDialogComponent</title>
<polygon fill="#ffffb3" stroke="black" points="3090.41,-122 2907.59,-122 2907.59,-86 3090.41,-86 3090.41,-122"/>
<text text-anchor="middle" x="2999" y="-99.8" font-family="Times,serif" font-size="14.00">IngredientsDialogComponent</text>
</g>
<!-- IngredientsDialogComponent&#45;&gt;AppModule -->
<g id="edge14" class="edge">
<title>IngredientsDialogComponent&#45;&gt;AppModule</title>
<path fill="none" stroke="black" d="M2999,-122.05C2999,-136.37 2999,-154 2999,-154 2999,-154 2862.72,-154 2862.72,-154"/>
<polygon fill="black" stroke="black" points="2862.72,-150.5 2852.72,-154 2862.72,-157.5 2862.72,-150.5"/>
</g>
<!-- KitchenMenuComponent -->
<g id="node15" class="node">
<title>KitchenMenuComponent</title>
<polygon fill="#ffffb3" stroke="black" points="2890.31,-122 2731.69,-122 2731.69,-86 2890.31,-86 2890.31,-122"/>
<text text-anchor="middle" x="2811" y="-99.8" font-family="Times,serif" font-size="14.00">KitchenMenuComponent</text>
</g>
<!-- KitchenMenuComponent&#45;&gt;AppModule -->
<g id="edge15" class="edge">
<title>KitchenMenuComponent&#45;&gt;AppModule</title>
<path fill="none" stroke="black" d="M2811,-122.11C2811,-122.11 2811,-140.99 2811,-140.99"/>
<polygon fill="black" stroke="black" points="2807.5,-140.99 2811,-150.99 2814.5,-140.99 2807.5,-140.99"/>
</g>
<!-- LoginInputComponent -->
<g id="node16" class="node">
<title>LoginInputComponent</title>
<polygon fill="#ffffb3" stroke="black" points="2714.33,-122 2569.67,-122 2569.67,-86 2714.33,-86 2714.33,-122"/>
<text text-anchor="middle" x="2642" y="-99.8" font-family="Times,serif" font-size="14.00">LoginInputComponent</text>
</g>
<!-- LoginInputComponent&#45;&gt;AppModule -->
<g id="edge16" class="edge">
<title>LoginInputComponent&#45;&gt;AppModule</title>
<path fill="none" stroke="black" d="M2642,-122.05C2642,-136.37 2642,-154 2642,-154 2642,-154 2759.22,-154 2759.22,-154"/>
<polygon fill="black" stroke="black" points="2759.22,-157.5 2769.22,-154 2759.22,-150.5 2759.22,-157.5"/>
</g>
<!-- ManagerMenuComponent -->
<g id="node17" class="node">
<title>ManagerMenuComponent</title>
<polygon fill="#ffffb3" stroke="black" points="2551.74,-122 2388.26,-122 2388.26,-86 2551.74,-86 2551.74,-122"/>
<text text-anchor="middle" x="2470" y="-99.8" font-family="Times,serif" font-size="14.00">ManagerMenuComponent</text>
</g>
<!-- ManagerMenuComponent&#45;&gt;AppModule -->
<g id="edge17" class="edge">
<title>ManagerMenuComponent&#45;&gt;AppModule</title>
<path fill="none" stroke="black" d="M2470,-122.19C2470,-137.18 2470,-156 2470,-156 2470,-156 2759.19,-156 2759.19,-156"/>
<polygon fill="black" stroke="black" points="2759.19,-159.5 2769.19,-156 2759.19,-152.5 2759.19,-159.5"/>
</g>
<!-- MenusListDisplayComponent -->
<g id="node18" class="node">
<title>MenusListDisplayComponent</title>
<polygon fill="#ffffb3" stroke="black" points="2370.26,-122 2185.74,-122 2185.74,-86 2370.26,-86 2370.26,-122"/>
<text text-anchor="middle" x="2278" y="-99.8" font-family="Times,serif" font-size="14.00">MenusListDisplayComponent</text>
</g>
<!-- MenusListDisplayComponent&#45;&gt;AppModule -->
<g id="edge18" class="edge">
<title>MenusListDisplayComponent&#45;&gt;AppModule</title>
<path fill="none" stroke="black" d="M2278,-122.28C2278,-137.95 2278,-158 2278,-158 2278,-158 2759.18,-158 2759.18,-158"/>
<polygon fill="black" stroke="black" points="2759.18,-161.5 2769.18,-158 2759.18,-154.5 2759.18,-161.5"/>
</g>
<!-- NotificationsComponent -->
<g id="node19" class="node">
<title>NotificationsComponent</title>
<polygon fill="#ffffb3" stroke="black" points="2167.43,-122 2012.57,-122 2012.57,-86 2167.43,-86 2167.43,-122"/>
<text text-anchor="middle" x="2090" y="-99.8" font-family="Times,serif" font-size="14.00">NotificationsComponent</text>
</g>
<!-- NotificationsComponent&#45;&gt;AppModule -->
<g id="edge19" class="edge">
<title>NotificationsComponent&#45;&gt;AppModule</title>
<path fill="none" stroke="black" d="M2090,-122.03C2090,-138.4 2090,-160 2090,-160 2090,-160 2759.12,-160 2759.12,-160"/>
<polygon fill="black" stroke="black" points="2759.12,-163.5 2769.12,-160 2759.12,-156.5 2759.12,-163.5"/>
</g>
<!-- NotificationsDialogComponent -->
<g id="node20" class="node">
<title>NotificationsDialogComponent</title>
<polygon fill="#ffffb3" stroke="black" points="1995.03,-122 1802.97,-122 1802.97,-86 1995.03,-86 1995.03,-122"/>
<text text-anchor="middle" x="1899" y="-99.8" font-family="Times,serif" font-size="14.00">NotificationsDialogComponent</text>
</g>
<!-- NotificationsDialogComponent&#45;&gt;AppModule -->
<g id="edge20" class="edge">
<title>NotificationsDialogComponent&#45;&gt;AppModule</title>
<path fill="none" stroke="black" d="M1899,-122.02C1899,-139.37 1899,-163 1899,-163 1899,-163 2759.14,-163 2759.14,-163"/>
<polygon fill="black" stroke="black" points="2759.14,-166.5 2769.14,-163 2759.14,-159.5 2759.14,-166.5"/>
</g>
<!-- OrderComponent -->
<g id="node21" class="node">
<title>OrderComponent</title>
<polygon fill="#ffffb3" stroke="black" points="1784.97,-122 1671.03,-122 1671.03,-86 1784.97,-86 1784.97,-122"/>
<text text-anchor="middle" x="1728" y="-99.8" font-family="Times,serif" font-size="14.00">OrderComponent</text>
</g>
<!-- OrderComponent&#45;&gt;AppModule -->
<g id="edge21" class="edge">
<title>OrderComponent&#45;&gt;AppModule</title>
<path fill="none" stroke="black" d="M1728,-122.3C1728,-140.27 1728,-165 1728,-165 1728,-165 2759.21,-165 2759.21,-165"/>
<polygon fill="black" stroke="black" points="2759.21,-168.5 2769.21,-165 2759.21,-161.5 2759.21,-168.5"/>
</g>
<!-- OrderTrackerComponent -->
<g id="node22" class="node">
<title>OrderTrackerComponent</title>
<polygon fill="#ffffb3" stroke="black" points="1652.99,-122 1495.01,-122 1495.01,-86 1652.99,-86 1652.99,-122"/>
<text text-anchor="middle" x="1574" y="-99.8" font-family="Times,serif" font-size="14.00">OrderTrackerComponent</text>
</g>
<!-- OrderTrackerComponent&#45;&gt;AppModule -->
<g id="edge22" class="edge">
<title>OrderTrackerComponent&#45;&gt;AppModule</title>
<path fill="none" stroke="black" d="M1574,-122.22C1574,-140.83 1574,-167 1574,-167 1574,-167 2759.13,-167 2759.13,-167"/>
<polygon fill="black" stroke="black" points="2759.13,-170.5 2769.13,-167 2759.13,-163.5 2759.13,-170.5"/>
</g>
<!-- OrdersListDisplayComponent -->
<g id="node23" class="node">
<title>OrdersListDisplayComponent</title>
<polygon fill="#ffffb3" stroke="black" points="1477.24,-122 1292.76,-122 1292.76,-86 1477.24,-86 1477.24,-122"/>
<text text-anchor="middle" x="1385" y="-99.8" font-family="Times,serif" font-size="14.00">OrdersListDisplayComponent</text>
</g>
<!-- OrdersListDisplayComponent&#45;&gt;AppModule -->
<g id="edge23" class="edge">
<title>OrdersListDisplayComponent&#45;&gt;AppModule</title>
<path fill="none" stroke="black" d="M1385,-122.11C1385,-141.34 1385,-169 1385,-169 1385,-169 2759.09,-169 2759.09,-169"/>
<polygon fill="black" stroke="black" points="2759.09,-172.5 2769.09,-169 2759.09,-165.5 2759.09,-172.5"/>
</g>
<!-- PaymentComponent -->
<g id="node24" class="node">
<title>PaymentComponent</title>
<polygon fill="#ffffb3" stroke="black" points="1274.33,-122 1143.67,-122 1143.67,-86 1274.33,-86 1274.33,-122"/>
<text text-anchor="middle" x="1209" y="-99.8" font-family="Times,serif" font-size="14.00">PaymentComponent</text>
</g>
<!-- PaymentComponent&#45;&gt;AppModule -->
<g id="edge24" class="edge">
<title>PaymentComponent&#45;&gt;AppModule</title>
<path fill="none" stroke="black" d="M1209,-122.22C1209,-142.37 1209,-172 1209,-172 1209,-172 2758.97,-172 2758.97,-172"/>
<polygon fill="black" stroke="black" points="2758.97,-175.5 2768.97,-172 2758.97,-168.5 2758.97,-175.5"/>
</g>
<!-- PickTableDialogComponent -->
<g id="node25" class="node">
<title>PickTableDialogComponent</title>
<polygon fill="#ffffb3" stroke="black" points="1126.2,-122 949.8,-122 949.8,-86 1126.2,-86 1126.2,-122"/>
<text text-anchor="middle" x="1038" y="-99.8" font-family="Times,serif" font-size="14.00">PickTableDialogComponent</text>
</g>
<!-- PickTableDialogComponent&#45;&gt;AppModule -->
<g id="edge25" class="edge">
<title>PickTableDialogComponent&#45;&gt;AppModule</title>
<path fill="none" stroke="black" d="M1038,-122.03C1038,-142.77 1038,-174 1038,-174 1038,-174 2758.92,-174 2758.92,-174"/>
<polygon fill="black" stroke="black" points="2758.92,-177.5 2768.92,-174 2758.92,-170.5 2758.92,-177.5"/>
</g>
<!-- ReadyToOrderComponent -->
<g id="node26" class="node">
<title>ReadyToOrderComponent</title>
<polygon fill="#ffffb3" stroke="black" points="931.79,-122 766.21,-122 766.21,-86 931.79,-86 931.79,-122"/>
<text text-anchor="middle" x="849" y="-99.8" font-family="Times,serif" font-size="14.00">ReadyToOrderComponent</text>
</g>
<!-- ReadyToOrderComponent&#45;&gt;AppModule -->
<g id="edge26" class="edge">
<title>ReadyToOrderComponent&#45;&gt;AppModule</title>
<path fill="none" stroke="black" d="M849,-122.17C849,-143.5 849,-176 849,-176 849,-176 2759.11,-176 2759.11,-176"/>
<polygon fill="black" stroke="black" points="2759.11,-179.5 2769.11,-176 2759.11,-172.5 2759.11,-179.5"/>
</g>
<!-- SalesDialogComponent -->
<g id="node27" class="node">
<title>SalesDialogComponent</title>
<polygon fill="#ffffb3" stroke="black" points="748.48,-122 599.52,-122 599.52,-86 748.48,-86 748.48,-122"/>
<text text-anchor="middle" x="674" y="-99.8" font-family="Times,serif" font-size="14.00">SalesDialogComponent</text>
</g>
<!-- SalesDialogComponent&#45;&gt;AppModule -->
<g id="edge27" class="edge">
<title>SalesDialogComponent&#45;&gt;AppModule</title>
<path fill="none" stroke="black" d="M674,-122.29C674,-144.21 674,-178 674,-178 674,-178 2759.27,-178 2759.27,-178"/>
<polygon fill="black" stroke="black" points="2759.27,-181.5 2769.27,-178 2759.27,-174.5 2759.27,-181.5"/>
</g>
<!-- SelectTableDialogComponent -->
<g id="node28" class="node">
<title>SelectTableDialogComponent</title>
<polygon fill="#ffffb3" stroke="black" points="581.52,-122 396.48,-122 396.48,-86 581.52,-86 581.52,-122"/>
<text text-anchor="middle" x="489" y="-99.8" font-family="Times,serif" font-size="14.00">SelectTableDialogComponent</text>
</g>
<!-- SelectTableDialogComponent&#45;&gt;AppModule -->
<g id="edge28" class="edge">
<title>SelectTableDialogComponent&#45;&gt;AppModule</title>
<path fill="none" stroke="black" d="M489,-122.25C489,-145.02 489,-181 489,-181 489,-181 2759.21,-181 2759.21,-181"/>
<polygon fill="black" stroke="black" points="2759.21,-184.5 2769.21,-181 2759.21,-177.5 2759.21,-184.5"/>
</g>
<!-- TablesListDisplayComponent -->
<g id="node29" class="node">
<title>TablesListDisplayComponent</title>
<polygon fill="#ffffb3" stroke="black" points="377.97,-122 194.03,-122 194.03,-86 377.97,-86 377.97,-122"/>
<text text-anchor="middle" x="286" y="-99.8" font-family="Times,serif" font-size="14.00">TablesListDisplayComponent</text>
</g>
<!-- TablesListDisplayComponent&#45;&gt;AppModule -->
<g id="edge29" class="edge">
<title>TablesListDisplayComponent&#45;&gt;AppModule</title>
<path fill="none" stroke="black" d="M286,-122.32C286,-145.66 286,-183 286,-183 286,-183 2759.28,-183 2759.28,-183"/>
<polygon fill="black" stroke="black" points="2759.28,-186.5 2769.28,-183 2759.28,-179.5 2759.28,-186.5"/>
</g>
<!-- WaiterMenuComponent -->
<g id="node30" class="node">
<title>WaiterMenuComponent</title>
<polygon fill="#ffffb3" stroke="black" points="176.08,-122 23.92,-122 23.92,-86 176.08,-86 176.08,-122"/>
<text text-anchor="middle" x="100" y="-99.8" font-family="Times,serif" font-size="14.00">WaiterMenuComponent</text>
</g>
<!-- WaiterMenuComponent&#45;&gt;AppModule -->
<g id="edge30" class="edge">
<title>WaiterMenuComponent&#45;&gt;AppModule</title>
<path fill="none" stroke="black" d="M100,-122.38C100,-146.28 100,-185 100,-185 100,-185 2759.23,-185 2759.23,-185"/>
<polygon fill="black" stroke="black" points="2759.23,-188.5 2769.23,-185 2759.23,-181.5 2759.23,-188.5"/>
</g>
<!-- AppComponent  -->
<g id="node33" class="node">
<title>AppComponent </title>
<polygon fill="#80b1d3" stroke="black" points="2865.44,-252 2756.56,-252 2756.56,-216 2865.44,-216 2865.44,-252"/>
<text text-anchor="middle" x="2811" y="-229.8" font-family="Times,serif" font-size="14.00">AppComponent </text>
</g>
<!-- AppModule&#45;&gt;AppComponent  -->
<g id="edge32" class="edge">
<title>AppModule&#45;&gt;AppComponent </title>
<path fill="none" stroke="black" stroke-dasharray="1,5" d="M2811,-187.11C2811,-187.11 2811,-205.99 2811,-205.99"/>
<polygon fill="black" stroke="black" points="2807.5,-205.99 2811,-215.99 2814.5,-205.99 2807.5,-205.99"/>
</g>
<!-- AppRoutingModule -->
<g id="node32" class="node">
<title>AppRoutingModule</title>
<polygon fill="#8dd3c7" stroke="black" points="5534.27,-122 5531.27,-126 5510.27,-126 5507.27,-122 5405.73,-122 5405.73,-86 5534.27,-86 5534.27,-122"/>
<text text-anchor="middle" x="5470" y="-99.8" font-family="Times,serif" font-size="14.00">AppRoutingModule</text>
</g>
<!-- AppRoutingModule&#45;&gt;AppModule -->
<g id="edge31" class="edge">
<title>AppRoutingModule&#45;&gt;AppModule</title>
<path fill="none" stroke="black" d="M5470,-122.38C5470,-146.28 5470,-185 5470,-185 5470,-185 2862.77,-185 2862.77,-185"/>
<polygon fill="black" stroke="black" points="2862.77,-181.5 2852.77,-185 2862.77,-188.5 2862.77,-181.5"/>
</g>
</g>
</svg>
